<?xml version="1.0" standalone="no"?>
<!DOCTYPE svg PUBLIC "-//W3C//DTD SVG 20010904//EN"
 "http://www.w3.org/TR/2001/REC-SVG-20010904/DTD/svg10.dtd">
<svg version="1.0" xmlns="http://www.w3.org/2000/svg"
 width="4096.000000pt" height="213.000000pt" viewBox="0 0 4096.000000 213.000000"
 preserveAspectRatio="xMidYMid meet">

<g transform="translate(0.000000,213.000000) scale(0.100000,-0.100000)"
fill="#000000" stroke="none">
<path d="M1002 2110 c-160 -42 -282 -134 -345 -258 -46 -92 -60 -164 -55 -276
7 -149 68 -250 203 -335 81 -51 144 -77 340 -140 88 -28 175 -60 193 -71 97
-60 93 -189 -9 -242 -113 -58 -284 -40 -494 52 -64 27 -132 35 -165 18 -31
-17 -67 -70 -81 -120 -23 -88 42 -198 148 -251 109 -55 299 -97 433 -97 79 0
224 22 305 45 135 39 272 133 330 225 106 171 87 425 -44 572 -84 94 -207 159
-501 262 -130 45 -166 66 -186 110 -16 32 -15 36 2 72 30 61 91 87 207 86 51
0 130 -8 177 -16 47 -9 126 -16 177 -16 81 0 95 3 118 23 30 25 49 94 39 141
-21 103 -106 171 -265 216 -104 28 -417 28 -527 0z"/>
<path d="M10780 2109 c-238 -62 -440 -231 -540 -452 -57 -128 -65 -169 -64
-342 1 -141 4 -172 28 -260 53 -197 152 -376 265 -476 68 -61 184 -122 282
-148 276 -75 613 -37 737 82 47 45 63 81 65 141 1 67 -24 110 -81 137 -48 24
-97 22 -246 -7 -188 -37 -321 -1 -442 120 -77 77 -118 157 -140 277 -26 136 1
280 75 404 93 154 288 218 506 166 50 -12 101 -24 114 -27 47 -10 133 16 168
51 28 28 33 40 33 79 0 118 -111 221 -282 261 -98 23 -381 20 -478 -6z"/>
<path d="M16325 2116 c-81 -17 -133 -41 -174 -79 -63 -61 -62 -46 -61 -622 0
-333 -4 -549 -11 -594 -12 -79 -1 -159 31 -221 48 -92 162 -166 305 -197 113
-25 440 -25 539 0 325 82 527 272 623 584 24 80 27 103 27 258 1 196 -13 262
-88 420 -140 295 -369 428 -781 455 -203 13 -334 11 -410 -4z m476 -366 c167
-31 298 -164 330 -335 16 -83 5 -263 -20 -345 -23 -74 -77 -169 -124 -218 -18
-18 -60 -47 -95 -64 -50 -25 -75 -31 -130 -31 -37 -1 -84 5 -104 12 -46 15
-105 79 -113 123 -3 18 -5 195 -3 393 3 332 4 362 22 391 22 37 66 65 116 75
52 10 62 10 121 -1z"/>
<path d="M27165 2124 c-236 -35 -421 -154 -586 -376 -184 -248 -232 -519 -142
-803 73 -233 266 -430 493 -504 71 -24 223 -51 282 -51 33 0 49 -10 134 -88
272 -248 484 -339 662 -287 89 27 144 88 162 183 7 38 5 55 -9 88 -25 55 -56
75 -192 122 -147 51 -177 66 -185 97 -7 29 5 50 67 115 101 107 156 226 188
410 57 325 47 476 -42 655 -78 158 -233 296 -419 373 -115 48 -317 80 -413 66z
m254 -555 c67 -28 132 -100 160 -175 19 -49 22 -74 19 -150 -3 -80 -8 -100
-38 -160 -60 -118 -160 -171 -307 -162 -104 7 -175 45 -225 119 -140 210 -48
491 179 549 55 14 155 4 212 -21z"/>
<path d="M2216 2105 c-52 -18 -104 -71 -117 -119 -16 -59 -7 -1398 10 -1450
26 -79 87 -110 226 -110 93 -1 142 18 178 68 l22 31 3 695 c2 491 -1 711 -9
750 -14 66 -64 122 -124 139 -54 15 -142 13 -189 -4z"/>
<path d="M9639 2093 c-44 -23 -59 -37 -79 -78 l-25 -50 -3 -565 c-3 -618 8
-853 42 -905 25 -38 93 -65 183 -72 67 -5 86 -2 131 17 34 15 59 34 72 55 19
31 20 50 20 746 0 497 -3 726 -11 754 -32 113 -200 163 -330 98z"/>
<path d="M11875 2105 c-51 -18 -101 -72 -115 -126 -8 -30 -10 -231 -8 -713 4
-572 7 -679 20 -725 25 -86 80 -115 223 -115 95 -1 147 20 182 73 l23 34 0
706 c0 455 -4 719 -10 743 -14 50 -55 97 -105 119 -49 22 -152 24 -210 4z"/>
<path d="M14165 2106 c-41 -18 -92 -77 -105 -123 -8 -27 -10 -238 -8 -703 3
-597 5 -669 20 -700 23 -49 64 -89 118 -114 43 -20 59 -21 465 -21 404 0 421
1 455 20 55 33 75 77 74 165 -2 89 -13 122 -51 147 -24 16 -59 19 -288 23
-276 5 -285 7 -324 56 -21 26 -21 35 -21 558 0 334 -4 545 -10 568 -14 50 -55
97 -105 119 -48 22 -174 25 -220 5z"/>
<path d="M25886 2105 c-51 -18 -92 -59 -112 -110 -14 -37 -15 -118 -11 -731 3
-514 7 -699 16 -728 24 -74 72 -101 202 -113 89 -8 159 15 197 65 l27 35 3
705 c3 790 3 782 -63 840 -19 17 -51 36 -72 41 -52 15 -140 13 -187 -4z"/>
<path d="M28420 2111 c-57 -12 -109 -42 -138 -79 l-27 -35 0 -516 c0 -509 0
-517 23 -596 41 -142 85 -220 176 -310 96 -94 184 -143 321 -176 126 -30 313
-24 430 14 241 79 404 246 450 462 27 127 37 326 33 706 -3 360 -4 376 -25
421 -39 85 -154 135 -250 109 -53 -14 -126 -80 -149 -133 -17 -39 -19 -86 -24
-508 -5 -460 -6 -466 -29 -524 -30 -76 -98 -149 -159 -173 -28 -11 -72 -18
-107 -17 -98 1 -163 46 -218 148 -22 41 -22 46 -23 531 -1 543 -3 562 -65 625
-48 47 -135 68 -219 51z"/>
<path d="M35203 2110 c-126 -27 -219 -132 -254 -287 -16 -71 -24 -990 -10
-1084 29 -185 130 -291 316 -334 47 -11 120 -16 248 -16 518 0 772 114 826
369 31 145 -18 333 -113 432 -91 95 -95 118 -34 211 57 89 78 153 78 244 0 83
-24 170 -64 234 -37 57 -124 131 -194 163 -119 54 -219 69 -502 73 -140 2
-274 0 -297 -5z m488 -345 c171 -61 162 -272 -13 -316 -29 -7 -99 -14 -155
-14 -88 0 -105 3 -130 21 -27 21 -28 25 -27 95 2 77 26 180 47 197 39 32 205
42 278 17z m106 -697 c90 -59 98 -184 17 -260 -56 -53 -119 -72 -229 -73 -110
0 -148 14 -189 68 -18 25 -21 42 -20 120 1 167 17 179 230 175 144 -3 152 -4
191 -30z"/>
<path d="M36650 2093 c-44 -23 -59 -37 -80 -78 l-25 -50 0 -625 c1 -645 8
-797 40 -847 24 -36 93 -63 183 -70 71 -5 85 -3 135 20 93 42 86 -16 87 805 1
698 1 722 -18 766 -31 69 -83 99 -185 104 -75 3 -87 1 -137 -25z"/>
<path d="M12980 2094 c-68 -18 -125 -57 -163 -110 -65 -92 -423 -1157 -459
-1365 -11 -62 -10 -68 13 -110 47 -85 179 -116 300 -69 75 28 105 62 163 185
57 119 74 140 133 161 50 17 231 18 305 0 99 -23 120 -46 159 -173 45 -146
123 -203 273 -203 74 0 134 25 164 68 37 51 30 116 -39 350 -181 615 -299 989
-335 1069 -31 66 -94 137 -146 164 -92 47 -259 62 -368 33z m206 -545 c46 -93
77 -211 69 -267 -13 -88 -92 -140 -199 -129 -90 8 -107 58 -55 167 16 35 46
109 64 162 58 167 68 172 121 67z"/>
<path d="M18322 2091 c-77 -23 -126 -60 -163 -127 -16 -27 -75 -182 -132 -344
-220 -621 -317 -941 -317 -1040 0 -102 70 -160 194 -160 142 0 219 52 276 188
42 100 81 156 122 173 23 10 76 14 173 14 219 0 259 -23 309 -179 45 -143 107
-194 246 -203 94 -7 139 6 180 53 27 31 30 42 30 100 0 69 -12 113 -174 653
-229 760 -248 799 -413 861 -83 32 -244 37 -331 11z m210 -527 c39 -71 78
-196 78 -249 0 -57 -29 -114 -69 -138 -71 -41 -193 -30 -212 20 -11 29 1 79
31 135 11 21 38 90 60 155 53 153 66 162 112 77z"/>
<path d="M24185 2095 c-27 -8 -53 -14 -57 -15 -4 0 -23 -14 -42 -31 -26 -22
-38 -43 -46 -82 -8 -37 -10 -255 -8 -737 3 -684 3 -685 25 -726 34 -64 135
-100 257 -92 85 5 121 32 142 103 16 56 16 50 1 757 -2 115 10 141 46 96 12
-15 109 -200 214 -411 212 -423 239 -464 341 -514 52 -26 66 -28 172 -28 100
0 121 3 157 23 76 40 90 94 104 412 13 291 6 1077 -10 1131 -27 90 -79 121
-211 126 -180 8 -193 -14 -209 -353 -6 -121 -11 -296 -11 -390 0 -175 -5 -234
-21 -234 -5 0 -14 12 -19 26 -18 47 -390 786 -412 818 -41 60 -72 86 -125 106
-72 27 -221 35 -288 15z"/>
<path d="M33870 2096 c-105 -30 -173 -95 -214 -204 -150 -403 -336 -963 -390
-1180 -32 -125 -33 -169 -3 -213 36 -54 90 -79 173 -79 145 0 223 54 282 198
43 104 87 156 146 171 65 16 231 14 301 -4 87 -23 120 -59 152 -169 44 -148
122 -206 275 -206 74 0 114 17 157 65 33 38 33 40 28 104 -7 70 -224 809 -356
1208 -62 188 -114 251 -246 297 -66 23 -244 30 -305 12z m205 -550 c90 -197
87 -322 -7 -373 -48 -25 -159 -25 -187 1 -30 27 -27 79 10 156 17 36 46 109
65 164 52 154 69 161 119 52z"/>
<path d="M37780 2096 c-91 -26 -153 -74 -189 -145 -24 -47 -265 -733 -324
-921 -88 -281 -110 -372 -111 -447 -1 -66 1 -74 29 -103 42 -44 86 -60 165
-60 142 0 201 41 271 188 62 130 94 166 162 183 60 14 263 7 320 -12 53 -17
92 -67 116 -144 36 -117 67 -162 136 -198 32 -17 58 -21 137 -22 107 0 131 10
176 76 21 29 23 42 18 90 -9 88 -289 1028 -376 1261 -52 140 -103 195 -219
239 -71 27 -243 35 -311 15z m202 -549 c91 -187 91 -324 -1 -371 -62 -33 -163
-32 -196 0 -23 23 -18 82 11 144 15 30 44 104 66 165 59 164 68 169 120 62z"/>
<path d="M39014 2097 c-65 -17 -117 -49 -135 -84 -12 -23 -14 -147 -17 -734
-2 -656 -1 -710 15 -754 22 -58 49 -80 128 -100 118 -30 224 -14 259 40 30 45
38 156 32 423 -3 141 -8 307 -11 367 -6 119 1 148 32 129 10 -6 108 -190 219
-410 218 -433 248 -480 348 -532 47 -24 61 -27 166 -27 99 0 121 3 160 22 25
13 53 35 62 51 9 15 24 77 33 137 13 94 15 203 13 730 l-3 620 -25 45 c-34 61
-81 83 -190 88 -103 5 -151 -11 -175 -58 -27 -51 -36 -168 -41 -510 -5 -332
-9 -410 -23 -410 -5 0 -103 191 -219 424 -232 464 -253 498 -347 529 -66 23
-217 30 -281 14z"/>
<path d="M4479 2080 c-36 -4 -89 -18 -118 -30 -63 -28 -133 -102 -156 -168
-24 -65 -29 -223 -16 -427 6 -93 14 -327 17 -520 6 -329 8 -352 27 -388 57
-103 218 -131 732 -125 289 3 312 4 344 23 53 31 74 67 79 133 7 95 -28 140
-133 176 -35 12 -108 20 -245 26 -229 10 -290 21 -334 60 -30 28 -31 31 -34
125 -6 143 -23 135 277 135 271 0 303 6 349 65 60 77 44 203 -31 241 -56 30
-97 35 -314 43 -249 8 -258 11 -282 101 -13 45 -13 58 0 93 8 22 27 50 42 61
27 20 44 21 316 26 317 6 323 7 357 71 46 90 21 204 -57 256 l-42 28 -356 1
c-196 1 -386 -2 -422 -6z"/>
<path d="M6985 2076 c-146 -34 -272 -105 -394 -221 -132 -126 -200 -234 -264
-418 -31 -89 -31 -97 -31 -262 0 -165 1 -173 31 -260 43 -124 93 -207 177
-291 81 -81 179 -141 292 -181 72 -24 92 -27 229 -27 165 -1 239 14 371 74
243 110 460 347 550 601 32 90 42 232 25 335 -34 195 -173 410 -338 522 -80
54 -109 68 -216 103 -81 28 -108 32 -232 35 -96 3 -159 -1 -200 -10z m297
-502 c78 -50 118 -138 118 -259 0 -149 -91 -329 -194 -382 -20 -11 -50 -14
-102 -11 -61 3 -79 8 -116 33 -55 39 -104 105 -119 158 -17 65 -7 222 18 279
25 54 99 138 151 170 83 51 176 56 244 12z"/>
<path d="M8430 2079 c-112 -22 -198 -91 -248 -199 -22 -48 -26 -68 -25 -155 0
-86 18 -771 28 -1080 2 -55 4 -114 4 -132 1 -21 11 -42 33 -63 l31 -32 101 4
c121 4 181 28 227 91 39 54 52 107 48 197 -8 194 -5 237 17 267 33 45 71 52
279 52 105 1 207 6 228 12 20 5 55 27 77 48 39 37 40 39 40 107 0 84 -28 147
-79 181 -32 22 -44 23 -221 23 -215 0 -272 11 -314 61 -14 17 -29 42 -33 57
-8 35 13 111 40 141 46 50 75 55 332 61 239 5 240 5 286 32 55 32 79 76 79
143 0 56 -19 96 -63 129 -76 58 -92 60 -472 62 -192 2 -370 -2 -395 -7z"/>
<path d="M20380 2081 c-87 -28 -142 -88 -160 -174 -10 -51 -20 -186 -40 -535
-5 -96 -17 -247 -25 -335 -8 -89 -15 -239 -17 -332 -3 -198 5 -221 83 -265 40
-23 55 -25 156 -25 172 0 186 18 203 253 5 76 10 200 10 277 1 168 23 542 33
551 11 12 14 4 46 -111 35 -130 132 -393 166 -450 32 -54 80 -99 141 -129 96
-48 173 -44 252 14 78 56 115 138 163 360 35 159 60 228 98 264 26 25 29 26
36 9 5 -10 11 -218 14 -463 6 -425 7 -447 27 -485 14 -28 35 -47 70 -65 43
-22 62 -25 149 -25 113 0 148 14 181 69 24 41 30 164 14 326 -6 69 -15 184
-20 255 -11 174 -37 471 -60 683 -22 198 -39 246 -102 292 -54 40 -123 53
-237 48 -131 -7 -202 -42 -241 -118 -19 -38 -77 -207 -164 -480 -31 -96 -60
-182 -65 -190 -26 -39 -75 69 -186 410 -59 181 -91 245 -147 297 -81 74 -87
76 -226 79 -70 2 -138 0 -152 -5z"/>
<path d="M22875 2084 c-16 -3 -59 -14 -95 -26 -333 -107 -585 -423 -631 -791
-19 -161 12 -334 89 -482 44 -84 178 -223 264 -274 208 -121 477 -134 718 -34
272 112 513 374 597 648 27 91 24 276 -6 375 -67 216 -214 398 -399 493 -138
71 -205 88 -367 92 -77 2 -153 1 -170 -1z m256 -505 c75 -38 129 -145 129
-257 0 -149 -96 -339 -194 -386 -46 -22 -141 -20 -191 3 -52 24 -109 84 -135
143 -21 49 -30 190 -14 253 19 82 106 195 178 232 88 46 154 50 227 12z"/>
<path d="M30225 2083 c-75 -5 -167 -39 -213 -79 -90 -76 -118 -203 -102 -456
5 -79 12 -307 15 -508 3 -201 8 -388 11 -417 7 -69 37 -112 101 -144 88 -45
187 -54 598 -54 363 0 371 0 405 22 92 57 105 191 25 262 -55 48 -118 61 -335
71 -232 10 -289 21 -329 61 -24 24 -31 41 -36 95 -9 80 -1 135 22 151 12 10
79 13 252 13 142 0 252 5 276 11 56 16 102 68 111 124 15 102 -24 166 -116
192 -36 10 -130 18 -265 22 -229 8 -244 12 -270 67 -18 38 -20 113 -3 148 26
59 37 61 356 66 l294 5 32 36 c44 47 62 120 46 180 -15 54 -82 123 -130 132
-33 7 -651 7 -745 0z"/>
<path d="M32344 2080 c-105 -22 -200 -95 -244 -186 -38 -82 -43 -150 -26 -359
8 -107 17 -374 20 -612 6 -455 7 -464 59 -492 18 -10 54 -12 124 -9 113 5 162
24 211 83 48 59 56 102 53 275 -1 92 2 167 8 183 7 18 26 35 53 47 38 17 67
20 233 20 105 0 207 5 227 10 70 20 128 89 128 153 0 48 -32 130 -65 165 l-33
37 -219 5 c-195 4 -222 7 -257 26 -58 30 -78 62 -78 122 1 76 32 126 97 153
20 9 108 15 270 19 225 5 243 7 283 28 74 40 108 125 77 198 -23 56 -61 91
-124 116 -54 22 -70 23 -406 24 -192 2 -368 -1 -391 -6z"/>
<path d="M2762 2065 c-45 -20 -68 -50 -82 -107 -18 -72 5 -180 42 -205 7 -4
81 -10 163 -13 132 -4 154 -8 185 -27 68 -43 64 -12 70 -613 l5 -545 25 -49
c35 -70 77 -90 201 -94 91 -4 97 -3 127 23 79 66 94 199 91 800 -3 448 -2 455
54 475 16 5 82 10 147 10 148 0 209 16 247 66 23 31 27 46 27 103 0 97 -33
149 -111 177 -58 20 -1143 20 -1191 -1z"/>
</g>
</svg>
